<svg xmlns="http://www.w3.org/2000/svg" width="60" height="40" fill="none" xmlns:v="https://vecta.io/nano"><g clip-path="url(#B)"><path d="M57 .5H3A2.5 2.5 0 0 0 .5 3v34A2.5 2.5 0 0 0 3 39.5h54a2.5 2.5 0 0 0 2.5-2.5V3A2.5 2.5 0 0 0 57 .5z" fill="#fff" stroke="#d7ebff"/><mask id="A" maskUnits="userSpaceOnUse" x="13" y="11" width="34" height="19"><path d="M47 11H13V30H47V11Z" fill="#fff"/></mask><g mask="url(#A)"><path d="M13 20.239v-9.236h1.721l4.523 5.752h.123V11h1.967v9.236h-1.7l-4.541-5.78h-.123v5.782H13zm16.541 0h-6.515v-9.236h6.515v1.65h-4.459v2.157h4.207v1.531h-4.207v2.247h4.459v1.652zm3.857 0v-7.586h-2.95V11h7.956v1.652h-2.95v7.586h-2.055zM13 28.198v-6.224h2.898a3.23 3.23 0 0 1 .86.107c.234.063.452.168.644.308a1.35 1.35 0 0 1 .404.487c.096.205.144.426.14.65a1.24 1.24 0 0 1-.092.472 1.32 1.32 0 0 1-.246.403c-.108.119-.237.219-.381.298a1.36 1.36 0 0 1-.473.155v.079a1.77 1.77 0 0 1 .615.144 1.63 1.63 0 0 1 .48.319 1.39 1.39 0 0 1 .315.462 1.41 1.41 0 0 1 .113.563 1.68 1.68 0 0 1-.159.739c-.104.218-.26.41-.457.561a2.18 2.18 0 0 1-.723.356 3.39 3.39 0 0 1-.953.126L13 28.198zm1.387-3.645h1.042c.377 0 .664-.068.861-.206a.69.69 0 0 0 .226-.257.65.65 0 0 0 .07-.327c.006-.111-.015-.221-.063-.322a.72.72 0 0 0-.209-.262 1.24 1.24 0 0 0-.771-.209h-1.158l.001 1.583zm1.229 2.648c.401 0 .707-.076.916-.231a.8.8 0 0 0 .244-.299.75.75 0 0 0 .07-.371.71.71 0 0 0-.073-.364c-.056-.114-.142-.212-.25-.287-.216-.147-.529-.219-.939-.219h-1.203v1.769l1.236.002zm4.689 1.07a2.08 2.08 0 0 1-.67-.102c-.194-.062-.372-.16-.524-.289a1.28 1.28 0 0 1-.343-.45 1.39 1.39 0 0 1-.123-.591 1.15 1.15 0 0 1 .12-.566 1.23 1.23 0 0 1 .386-.45c.337-.242.822-.381 1.457-.417l1.229-.068v-.387a.52.52 0 0 0-.049-.256c-.038-.08-.096-.151-.168-.206-.187-.119-.411-.176-.637-.162a1.38 1.38 0 0 0-.596.115.61.61 0 0 0-.193.134.57.57 0 0 0-.124.194h-1.229a1.29 1.29 0 0 1 .204-.593c.118-.18.275-.334.461-.453.208-.132.439-.229.682-.288a3.57 3.57 0 0 1 .87-.099 3.3 3.3 0 0 1 .894.116 1.91 1.91 0 0 1 .659.316c.176.137.315.31.406.507a1.58 1.58 0 0 1 .14.679v3.249h-1.298v-.621h-.084c-.135.222-.339.4-.585.51a2.04 2.04 0 0 1-.884.177zm.441-.944a1.39 1.39 0 0 0 .431-.065c.125-.041.242-.102.344-.181.096-.075.174-.167.23-.271s.084-.22.082-.337v-.346l-1.024.06c-.57.037-.856.229-.86.577a.46.46 0 0 0 .054.235.5.5 0 0 0 .166.183c.17.106.373.157.576.145zm3.249-3.887h1.296v.763h.082a1.36 1.36 0 0 1 .553-.636 1.79 1.79 0 0 1 .944-.231c.563 0 .992.154 1.288.462s.443.748.443 1.32v3.076h-1.336V25.42c0-.332-.076-.581-.227-.748s-.386-.251-.704-.253c-.143-.002-.285.022-.418.073a.89.89 0 0 0-.315.21.91.91 0 0 0-.2.328 1.26 1.26 0 0 0-.069.425v2.743h-1.336V23.44zm8.59 0h1.516l-1.929 2.04 2.062 2.718h-1.58l-1.475-1.933-.369.353v1.579h-1.339v-6.574h1.336v3.674h.084l1.694-1.858zm2.708-.664a1.07 1.07 0 0 1-.326-.047.79.79 0 0 1-.246-.132.58.58 0 0 1-.159-.201.59.59 0 0 1-.055-.254.6.6 0 0 1 .055-.26.57.57 0 0 1 .159-.2c.072-.058.155-.102.246-.129.105-.032.215-.048.326-.046a1.16 1.16 0 0 1 .323.046.72.72 0 0 1 .246.129.59.59 0 0 1 .161.2.57.57 0 0 1 .056.26c-.002.09-.017.172-.055.25a.59.59 0 0 1-.163.205.79.79 0 0 1-.246.132 1.04 1.04 0 0 1-.323.047zm-.671.664h1.337v4.758h-1.337V23.44zm2.217 0h1.296v.763h.082a1.36 1.36 0 0 1 .556-.637 1.79 1.79 0 0 1 .944-.231c.563 0 .992.154 1.288.462s.443.748.443 1.32v3.076h-1.339V25.42c0-.331-.075-.577-.227-.748s-.386-.253-.704-.253c-.143-.002-.285.022-.418.073a.89.89 0 0 0-.315.21c-.09.095-.158.207-.199.328-.048.137-.072.281-.07.425v2.743H36.84V23.44zM44.502 30a3.95 3.95 0 0 1-.918-.099 2.45 2.45 0 0 1-.714-.283 1.54 1.54 0 0 1-.478-.44 1.21 1.21 0 0 1-.209-.577h1.323a.51.51 0 0 0 .117.208.57.57 0 0 0 .202.139 1.63 1.63 0 0 0 .704.129c.361 0 .641-.073.838-.219a.76.76 0 0 0 .229-.279.71.71 0 0 0 .068-.346v-.88h-.082c-.132.246-.341.448-.6.577a2.05 2.05 0 0 1-.926.194 2.12 2.12 0 0 1-.852-.166 1.8 1.8 0 0 1-.644-.472 2.09 2.09 0 0 1-.409-.74 3.12 3.12 0 0 1-.143-.972 3.29 3.29 0 0 1 .143-.999 2.17 2.17 0 0 1 .411-.761 1.83 1.83 0 0 1 .655-.486 2.13 2.13 0 0 1 .868-.17 2.07 2.07 0 0 1 .492.058c.152.038.297.094.434.166.266.143.48.358.615.616h.084v-.763h1.294v4.75c.004.26-.055.518-.175.754a1.63 1.63 0 0 1-.5.577 2.43 2.43 0 0 1-.788.365c-.338.086-.687.127-1.038.12zm1.175-4.222a1.88 1.88 0 0 0-.08-.567 1.24 1.24 0 0 0-.23-.429c-.097-.116-.221-.209-.363-.273a1.28 1.28 0 0 0-.968 0c-.14.064-.262.157-.358.273-.103.128-.179.274-.222.429a2.12 2.12 0 0 0 0 1.129 1.23 1.23 0 0 0 .22.43c.095.116.218.209.359.271a1.16 1.16 0 0 0 .484.095 1.2 1.2 0 0 0 .492-.095 1 1 0 0 0 .369-.271 1.22 1.22 0 0 0 .227-.427 1.9 1.9 0 0 0 .069-.565z" fill="#000"/></g></g><defs><clipPath id="B"><path fill="#fff" d="M0 0h60v40H0z"/></clipPath></defs></svg>